<mxfile host="app.diagrams.net" modified="2024-02-04T15:49:34.505Z" agent="Mozilla/5.0 (Windows NT 10.0; Win64; x64) AppleWebKit/537.36 (KHTML, like Gecko) Chrome/121.0.0.0 Safari/537.36" etag="e-01jF2ZNjQiXu0FwL-N" version="23.1.1" type="github">
  <diagram name="第 1 页" id="8CbD6BTfDr4yx-ZM_l9H">
    <mxGraphModel dx="171" dy="86" grid="1" gridSize="10" guides="1" tooltips="1" connect="1" arrows="1" fold="1" page="1" pageScale="1" pageWidth="827" pageHeight="1169" math="0" shadow="0">
      <root>
        <mxCell id="0" />
        <mxCell id="1" parent="0" />
        <mxCell id="030p0BQSd4tmsaGvM5En-3" value="" style="whiteSpace=wrap;html=1;strokeColor=none;" vertex="1" parent="1">
          <mxGeometry width="64" height="64" as="geometry" />
        </mxCell>
        <mxCell id="030p0BQSd4tmsaGvM5En-4" value="" style="rounded=1;whiteSpace=wrap;html=1;strokeWidth=1;fillColor=#0066CC;strokeColor=none;glass=0;shadow=0;arcSize=6;gradientColor=none;" vertex="1" parent="1">
          <mxGeometry x="5" width="54" height="64" as="geometry" />
        </mxCell>
        <mxCell id="030p0BQSd4tmsaGvM5En-8" value="" style="rounded=1;whiteSpace=wrap;html=1;strokeColor=none;fillColor=#ffcd28;gradientColor=#ffa500;arcSize=10;" vertex="1" parent="1">
          <mxGeometry x="46" y="51" width="14" height="14" as="geometry" />
        </mxCell>
        <mxCell id="030p0BQSd4tmsaGvM5En-11" value="" style="rounded=0;whiteSpace=wrap;html=1;strokeColor=none;direction=west;rotation=315;" vertex="1" parent="1">
          <mxGeometry x="42.88" y="55.12" width="29.41" height="12" as="geometry" />
        </mxCell>
        <mxCell id="030p0BQSd4tmsaGvM5En-12" value="" style="rounded=1;whiteSpace=wrap;html=1;strokeColor=none;" vertex="1" parent="1">
          <mxGeometry x="18" y="17" width="31" height="5" as="geometry" />
        </mxCell>
        <mxCell id="030p0BQSd4tmsaGvM5En-13" value="" style="rounded=1;whiteSpace=wrap;html=1;strokeColor=none;" vertex="1" parent="1">
          <mxGeometry x="18" y="29.5" width="31" height="5" as="geometry" />
        </mxCell>
      </root>
    </mxGraphModel>
  </diagram>
</mxfile>
